<?xml version="1.0" encoding="utf-8"?>
<!-- Generator: Adobe Illustrator 25.0.1, SVG Export Plug-In . SVG Version: 6.00 Build 0)  -->
<svg version="1.1" id="Camada_1" xmlns="http://www.w3.org/2000/svg" xmlns:xlink="http://www.w3.org/1999/xlink" x="0px" y="0px"
	 viewBox="0 0 500 500" style="enable-background:new 0 0 500 500;" xml:space="preserve">
<style type="text/css">
	.st0{fill:#123A5F;}
	.st1{fill:#145593;}
	.st2{fill:#D2D528;}
	.st3{display:none;fill:#0B5690;}
	.st4{display:none;fill:#D2D528;}
	.st5{display:none;fill:#0B5690;stroke:#0B5690;stroke-miterlimit:10;}
	.st6{fill:#0B5690;}
	.st7{fill:none;}
	.st8{font-family:'Lato-Black';}
	.st9{font-size:72px;}
	.st10{fill:#D2D528;stroke:#D2D528;stroke-width:9;stroke-miterlimit:10;}
	.st11{fill:#D2D528;stroke:#D2D528;stroke-width:7;stroke-miterlimit:10;}
</style>
<rect x="-1" class="st0" width="501" height="501"/>
<path class="st1" d="M119.7,376.9c44.3,45.3,110.8,68.9,181.8,53.4c74.9-16.3,132.5-76.5,146.5-151.8c6.5-35.4,3.4-69.6-7.2-100.2
	l59.2,78.5V500H216"/>
<path class="st2" d="M452.8,245.1c0,106.8-86.6,193.5-193.5,193.5c-56.4,0-107.2-24.1-142.5-62.7c-31.6-34.4-50.9-80.4-50.9-130.8
	c0-106.8,86.6-193.5,193.5-193.5c70.9,0,132.9,38.1,166.6,95C443,175.5,452.8,209.2,452.8,245.1z"/>
<path class="st3" d="M217,185.4"/>
<path class="st3" d="M111.9,215.3c-1.4,8.6-2.1,17.3-2.5,26.2c-0.1,1.4-0.2,2.7-0.5,4.1c-0.7,2.9-3.2,5-6.1,5.2
	c-3,0.2-6-1.3-6.8-4.2c-0.7-2.7-1-5.5-0.9-8.3c2-53.5,23.9-97,66.7-129.1c33.2-24.9,71-35.3,112.3-31.6
	c36.4,3.2,68.3,17.3,95.6,41.7c1.2,1.1,2.4,2.4,3.3,3.8c2.2,3.1,1.5,7.3-1.6,9.5c-2,1.4-4.7,1.7-6.9,0.6c-1.2-0.6-2.3-1.3-3.2-2.2
	c-22.2-20.3-48.1-33.1-77.7-37.8c-41.2-6.5-78.9,2.6-112.8,27.1c-24.8,18-42.3,41.6-52.6,70.4C115.3,198.8,113.3,206.9,111.9,215.3z
	"/>
<path class="st3" d="M221.3,177.4"/>
<path class="st3" d="M181.4,309.4v5.8c0,0-1.2,5.3,6.9,5.3h60.5c0,0,6-0.2,6.9,4.3c0.9,4.4-1.2,8-5.8,8.3c-4.6,0.3-66.6,0-66.6,0
	s-16-2.4-15.2-19.4c0.8-17.1-0.2-94.6-0.2-94.6v-34.6c0,0,1.7-15.3,19.2-15.9h13.2h128.3h5.2c0,0,12.8,0.2,17.6,15.6v48.3
	c-0.2,0,0,5.7-7,5.6c0,0-0.1,0-0.1,0c-0.1,0-0.2,0-0.3,0c-0.1,0-0.3,0-0.4,0c-0.2,0-0.3,0-0.5-0.1c-0.2,0-0.4-0.1-0.6-0.2
	c-0.2-0.1-0.4-0.2-0.7-0.3c-0.2-0.1-0.5-0.2-0.7-0.4c-0.2-0.2-0.5-0.3-0.7-0.5c-0.2-0.2-0.5-0.5-0.6-0.7c-0.2-0.3-0.4-0.6-0.6-0.9
	c-0.2-0.4-0.4-0.8-0.5-1.1c-0.1-0.2-0.1-0.4-0.2-0.7c-0.1-0.5-0.2-1,0.4-1.6v-0.6v-0.7v-0.8v-0.9v-0.9v-1v-1v-1v-1v-0.9v-0.9V221
	v-0.7v-0.5v-0.4v-0.2v-0.1v-33.5c-0.2,0-6.3-6.1-6.3-6.1H188.2c0,0-7.1-1.1-6.8,7.3V309.4z"/>
<circle class="st3" cx="301" cy="282" r="49"/>
<path class="st3" d="M219,168h-13v-6.7c0-3.5,2.8-6.3,6.3-6.3h0.5c3.5,0,6.3,2.8,6.3,6.3V168z"/>
<path class="st3" d="M269,168h-13v-6.7c0-3.5,2.8-6.3,6.3-6.3h0.5c3.5,0,6.3,2.8,6.3,6.3V168z"/>
<path class="st3" d="M320,168h-13v-6.7c0-3.5,2.8-6.3,6.3-6.3h0.5c3.5,0,6.3,2.8,6.3,6.3V168z"/>
<path class="st4" d="M287.1,276.2l10.2,9.4l14.9-20.6c0,0,4.3-4.1,9.3,0.6c0,0,2.9,3.3,0.5,7.4s-20.9,27-20.9,27s-4.2,3-8.3-1.2
	c-4.1-4.2-14.1-14.4-14.1-14.4s-1.5-4.6,1.9-7.3C280.7,277.3,283.4,274.6,287.1,276.2z"/>
<path class="st3" d="M423.6,249.1c-1.8,58.3-26.1,104.7-74.7,137.4c-30.8,20.7-65.2,29.1-102.3,26.4c-34.8-2.5-65.6-15.1-92.5-37.1
	c-1.8-1.4-3.3-3-4.5-4.8c-2-3.4-1.2-7.8,2-10.2c3-2.4,7.4-2.3,10.2,0.3c19.1,17.6,41.8,28.4,67.1,33.3c44.6,8.7,85.4-0.6,121.3-28.4
	c31.4-24.3,49.9-56.6,55.9-95.9c3.2-21.1,1.7-42.6-4.4-63c-1.2-3.6,0.5-7.6,4-9.1c3.4-1.7,7.6-0.7,9.9,2.4c0.9,1.2,1.5,2.5,1.9,3.9
	C421.6,218.9,423.6,234,423.6,249.1z"/>
<rect x="201.5" y="192.5" class="st5" width="24" height="24"/>
<rect x="201.5" y="236.5" class="st5" width="24" height="24"/>
<rect x="201.5" y="280.5" class="st5" width="24" height="24"/>
<circle class="st6" cx="133.5" cy="342.5" r="73.5"/>
<path class="st2" d="M190.9,344.5c-2.9,0.5-5.7,0.8-8.4,1.4c-0.5,0.1-0.9,1-1.1,1.5c-1.3,3.6-2.2,7.3-3.7,10.8
	c-3.4,7.6-8.3,14-15.8,18.1c-12.6,6.8-25.5,6.1-38.1,0.2c-13.7-6.3-22.8-17.3-29.8-30.3c-1.7-3.1-1.4-3,1.1-5.4
	c5.3-5,10.4-10.2,15.6-15.4c6.4-6.4,12.8-12.8,20.8-17.2c9-5,18-4.2,25.7,2.3c5,4.2,8,9.8,10.4,15.8c0.8,1.5,0.3,3.4-1.1,4.4
	c-0.4-0.3-0.8-0.6-1.1-0.9c-10.5-9-24.7-9-34.8,0.5c-4.8,4.5-9,9.7-13.5,14.6c-0.3,0.5-0.2,1.2,0.1,1.7c6,8.3,12.9,15.4,22.4,19.7
	c4.6,2.1,9.5,3.1,14.6,1.9c8.3-1.9,14.3-7.2,19.1-14c1.6-2.3,3-4.8,4.7-7.6c-1.3,0.1-2,0.1-2.7,0.2c-4,0.4-8,1-12,1.2
	c-6.3,0.3-12.6,0.2-18.9,0.2c-1.5,0-2.8-0.5-2.6-2.5c0.5,0,0.9-0.1,1.3-0.1c15.3-0.3,30.4-3,44.8-8.2c2.7-1,2.8-1,2.2-4
	c-3.1-17.3-12.2-30.7-27.3-39.6c-22.5-13.3-50-9.9-68.7,8.4c-13.6,13.3-19.1,29.8-16.7,48.6c1.9,14.7,9,26.6,20.4,36.1
	c10.6,8.9,23.1,13.4,36.9,13c23.1-0.7,40.1-11.8,50.6-32.4C189,360.4,190.9,352.5,190.9,344.5z"/>
<path class="st6" d="M261.3,136.6l-90.5,91.9c0,0-3,7.1,6.1,5.4H222l1.7,107.7c0,0,0.7,5.3,5.2,5.3l69.2-0.8c0,0,4.1,0.1,4.1-5.6
	c-0.1-5.7-1-107.6-1-107.6h50c0,0,4.4-1.6,2.4-6.6L261.3,136.6z"/>
<path class="st6" d="M331.8,387.5c-1.4-2.6-4.4-4-7.3-3.4c-1.3,0.3-2.7,0.7-3.9,1.3c-8.3,3.4-16.5,6.4-24.8,8.7
	c-8.1,2.3-16.4,3.9-25,4.7c-27.1,2.4-52.9-2-77-13.6c-4,3.1-7.6,6.7-11.3,10.3c45.9,23.4,93.2,24.3,141.2,4.3c2.6-1.1,5-2.5,7.2-4.4
	C333.1,393.5,333.3,390.1,331.8,387.5z"/>
<path class="st6" d="M114.6,216.2c-1.4,8.6-2.1,17.3-2.5,26.2c-0.1,1.4-0.2,2.7-0.5,4.1c-0.7,2.9-3.2,5-6.1,5.2
	c-3,0.2-6-1.3-6.8-4.2c-0.7-2.7-1-5.5-0.9-8.3c2-53.5,23.9-97,66.7-129.1c33.2-24.9,71-35.3,112.3-31.6
	c36.4,3.2,68.3,17.3,95.6,41.7c1.2,1.1,2.4,2.4,3.3,3.8c2.2,3.1,1.5,7.3-1.6,9.5c-2,1.4-4.7,1.7-6.9,0.6c-1.2-0.6-2.3-1.3-3.2-2.2
	c-22.2-20.3-48.1-33.1-77.7-37.8c-41.2-6.5-78.9,2.6-112.8,27.1c-24.8,18-42.3,41.6-52.6,70.4C117.9,199.7,116,207.9,114.6,216.2z"
	/>
<g>
	<rect x="233.3" y="202.9" class="st7" width="61.8" height="57.3"/>
	<text transform="matrix(1 0 0 1 233.2877 256.8611)" class="st2 st8 st9">%</text>
</g>
<g>
	<path class="st10" d="M350.8,289.6c0,0,1.3,7.2-0.4,12.1c0,0,1.7,1.8,0.7,10c0,0,2.2,8-0.7,12.2c0,0,1.9,2.5,0.7,10
		c0,0-4.3,17-33.8,16.1c0,0-30.6-0.2-32-18.8c0,0-0.3-5.6,0.2-7.3c0,0,0.3-3.7,2.5-6.8c0,0-4.2-2.5-2.5-15.4c0,0-2.1-4.3-1.8-14.1
		s12.4-17.5,34.1-18.1C317.7,269.5,351.9,269.6,350.8,289.6z"/>
	<ellipse class="st6" cx="317.2" cy="287.2" rx="33.6" ry="17.2"/>
	<path class="st6" d="M285.5,301.7c0,0,4.7,13.8,32.3,14.6c0,0,24.7,0.8,32.6-14.6c0,0,1.3-0.8,0.7,10c0,0-4.2,18.9-41.4,15.7
		c0,0-22.6-2.7-24.2-16.7C285.5,310.8,284.8,308,285.5,301.7z"/>
	<path class="st6" d="M285.5,323.9c0,0,4.7,13.8,32.3,14.6c0,0,24.7,0.8,32.6-14.6c0,0,1.3-0.8,0.7,10c0,0-4.2,18.9-41.4,15.7
		c0,0-22.6-2.7-24.2-16.7C285.5,333,284.8,330.2,285.5,323.9z"/>
</g>
<path class="st11" d="M354.6,262.3"/>
</svg>
